<?xml version="1.0" encoding="UTF-8" standalone="no"?>
<svg xmlns="http://www.w3.org/2000/svg" width="32" height="32" viewBox="0 0 32 32">
  <defs>
    <linearGradient id="vanillaGradient" x1="0%" y1="0%" x2="100%" y2="100%">
      <stop offset="0%" stop-color="#8B5A2B" />
      <stop offset="100%" stop-color="#654321" />
    </linearGradient>
  </defs>
  <!-- Thai flag colors: red (#F4212E), white (#FFFFFF), blue (#022A86) -->
  <!-- Background circle with Thai blue -->
  <circle cx="16" cy="16" r="15" fill="#022A86" />
  <!-- White inner circle -->
  <circle cx="16" cy="16" r="13" fill="#FFFFFF" />
  <!-- Red inner circle -->
  <circle cx="16" cy="16" r="11" fill="#F4212E" />
  <!-- Vanilla bean pod -->
  <path d="M10,10 C12,8 16,8 18,10 C20,14 20,18 18,22 C16,24 12,24 10,22 C8,18 8,14 10,10 Z" fill="url(#vanillaGradient)" />
  <!-- Vanilla bean striations -->
  <path d="M10,12 L18,12 M10,16 L18,16 M10,20 L18,20" stroke="#3D2314" stroke-width="0.5" fill="none" />
  <!-- Vanilla flower outline -->
  <path d="M16,7 C17,6 19,6 20,7 C19,8 19,10 20,11 C19,12 17,12 16,11 C15,12 13,12 12,11 C13,10 13,8 12,7 C13,6 15,6 16,7 Z" fill="#FFFBE6" stroke="#8B5A2B" stroke-width="0.5" />
</svg>
